<svg width="127" height="29" viewBox="0 0 127 29" fill="none" xmlns="http://www.w3.org/2000/svg">
<g clip-path="url(#clip0_5_2553)">
<path d="M53.5 19.4V22H42.66V8H53.24V10.6H45.88V13.64H52.38V16.16H45.88V19.4H53.5ZM66.7398 7.16V22H63.7598V20.76C62.9865 21.6933 61.8665 22.16 60.3998 22.16C59.3865 22.16 58.4665 21.9333 57.6398 21.48C56.8265 21.0267 56.1865 20.38 55.7198 19.54C55.2532 18.7 55.0198 17.7267 55.0198 16.62C55.0198 15.5133 55.2532 14.54 55.7198 13.7C56.1865 12.86 56.8265 12.2133 57.6398 11.76C58.4665 11.3067 59.3865 11.08 60.3998 11.08C61.7732 11.08 62.8465 11.5133 63.6198 12.38V7.16H66.7398ZM60.9398 19.6C61.7265 19.6 62.3798 19.3333 62.8998 18.8C63.4198 18.2533 63.6798 17.5267 63.6798 16.62C63.6798 15.7133 63.4198 14.9933 62.8998 14.46C62.3798 13.9133 61.7265 13.64 60.9398 13.64C60.1398 13.64 59.4798 13.9133 58.9598 14.46C58.4398 14.9933 58.1798 15.7133 58.1798 16.62C58.1798 17.5267 58.4398 18.2533 58.9598 18.8C59.4798 19.3333 60.1398 19.6 60.9398 19.6ZM80.4675 11.24V22H77.5075V20.72C77.0942 21.1867 76.6008 21.5467 76.0275 21.8C75.4542 22.04 74.8342 22.16 74.1675 22.16C72.7542 22.16 71.6342 21.7533 70.8075 20.94C69.9808 20.1267 69.5675 18.92 69.5675 17.32V11.24H72.6875V16.86C72.6875 18.5933 73.4142 19.46 74.8675 19.46C75.6142 19.46 76.2142 19.22 76.6675 18.74C77.1208 18.2467 77.3475 17.52 77.3475 16.56V11.24H80.4675ZM88.558 22.16C87.4113 22.16 86.378 21.9267 85.458 21.46C84.5513 20.98 83.838 20.32 83.318 19.48C82.8113 18.64 82.558 17.6867 82.558 16.62C82.558 15.5533 82.8113 14.6 83.318 13.76C83.838 12.92 84.5513 12.2667 85.458 11.8C86.378 11.32 87.4113 11.08 88.558 11.08C89.6913 11.08 90.678 11.32 91.518 11.8C92.3713 12.2667 92.9913 12.94 93.378 13.82L90.958 15.12C90.398 14.1333 89.5913 13.64 88.538 13.64C87.7246 13.64 87.0513 13.9067 86.518 14.44C85.9846 14.9733 85.718 15.7 85.718 16.62C85.718 17.54 85.9846 18.2667 86.518 18.8C87.0513 19.3333 87.7246 19.6 88.538 19.6C89.6046 19.6 90.4113 19.1067 90.958 18.12L93.378 19.44C92.9913 20.2933 92.3713 20.96 91.518 21.44C90.678 21.92 89.6913 22.16 88.558 22.16ZM99.5144 11.08C101.181 11.08 102.461 11.48 103.354 12.28C104.248 13.0667 104.694 14.26 104.694 15.86V22H101.774V20.66C101.188 21.66 100.094 22.16 98.4944 22.16C97.6677 22.16 96.9477 22.02 96.3344 21.74C95.7344 21.46 95.2744 21.0733 94.9544 20.58C94.6344 20.0867 94.4744 19.5267 94.4744 18.9C94.4744 17.9 94.8477 17.1133 95.5944 16.54C96.3544 15.9667 97.521 15.68 99.0944 15.68H101.574C101.574 15 101.368 14.48 100.954 14.12C100.541 13.7467 99.921 13.56 99.0944 13.56C98.521 13.56 97.9544 13.6533 97.3944 13.84C96.8477 14.0133 96.381 14.2533 95.9944 14.56L94.8744 12.38C95.461 11.9667 96.161 11.6467 96.9744 11.42C97.801 11.1933 98.6477 11.08 99.5144 11.08ZM99.2744 20.06C99.8077 20.06 100.281 19.94 100.694 19.7C101.108 19.4467 101.401 19.08 101.574 18.6V17.5H99.4344C98.1544 17.5 97.5144 17.92 97.5144 18.76C97.5144 19.16 97.6677 19.48 97.9744 19.72C98.2944 19.9467 98.7277 20.06 99.2744 20.06ZM110.498 12.66C110.871 12.14 111.371 11.7467 111.998 11.48C112.638 11.2133 113.371 11.08 114.198 11.08V13.96C113.851 13.9333 113.618 13.92 113.498 13.92C112.605 13.92 111.905 14.1733 111.398 14.68C110.891 15.1733 110.638 15.92 110.638 16.92V22H107.518V11.24H110.498V12.66ZM126.496 16.66C126.496 16.7 126.476 16.98 126.436 17.5H118.296C118.442 18.1667 118.789 18.6933 119.336 19.08C119.882 19.4667 120.562 19.66 121.376 19.66C121.936 19.66 122.429 19.58 122.856 19.42C123.296 19.2467 123.702 18.98 124.076 18.62L125.736 20.42C124.722 21.58 123.242 22.16 121.296 22.16C120.082 22.16 119.009 21.9267 118.076 21.46C117.142 20.98 116.422 20.32 115.916 19.48C115.409 18.64 115.156 17.6867 115.156 16.62C115.156 15.5667 115.402 14.62 115.896 13.78C116.402 12.9267 117.089 12.2667 117.956 11.8C118.836 11.32 119.816 11.08 120.896 11.08C121.949 11.08 122.902 11.3067 123.756 11.76C124.609 12.2133 125.276 12.8667 125.756 13.72C126.249 14.56 126.496 15.54 126.496 16.66ZM120.916 13.44C120.209 13.44 119.616 13.64 119.136 14.04C118.656 14.44 118.362 14.9867 118.256 15.68H123.556C123.449 15 123.156 14.46 122.676 14.06C122.196 13.6467 121.609 13.44 120.916 13.44Z" fill="#171725"/>
<rect x="2" y="3" width="24" height="24" rx="8" stroke="#0073FF" stroke-width="4"/>
<rect x="13" y="4" width="12" height="12" rx="6" stroke="#0073FF" stroke-width="4"/>
</g>
<defs>
<clipPath id="clip0_5_2553">
<rect width="127" height="29" fill="white"/>
</clipPath>
</defs>
</svg>
