<svg width="28" height="16" viewBox="0 0 28 16" fill="none" xmlns="http://www.w3.org/2000/svg">
<path fill-rule="evenodd" clip-rule="evenodd" d="M1.34085 0.0904003C0.736903 0.255829 0.27038 0.701616 0.10052 1.2758C-0.0345997 1.73252 -0.0330003 11.3436 0.102312 12.0631C0.285095 13.0347 0.693974 13.8249 1.38544 14.5427C2.15624 15.3428 3.12294 15.815 4.26288 15.9482C4.63766 15.9919 7.29822 16.0086 11.8457 15.9958C19.6947 15.9737 19.0484 16.016 19.6119 15.4877C19.7707 15.3388 19.9667 15.0803 20.0476 14.9133L20.1948 14.6094L20.2136 9.69602C20.2264 6.3933 20.2095 4.60417 20.1623 4.23823C19.8801 2.05108 18.2035 0.348891 16.0514 0.064564C15.3011 -0.0346154 1.71013 -0.0106663 1.34085 0.0904003ZM25.9527 0.158667C25.7537 0.257001 24.8714 1.00046 23.6176 2.12664C22.0682 3.51821 21.569 4.00369 21.4583 4.22697C21.3144 4.51729 21.3144 4.51761 21.3144 8.00399C21.3144 11.4904 21.3144 11.4907 21.4583 11.781C21.5693 12.0049 22.0633 12.484 23.6176 13.875C24.726 14.867 25.7598 15.7431 25.915 15.8219C26.5689 16.1541 27.4135 15.9027 27.8081 15.2584L28 14.945V8.00906V1.07315L27.8281 0.775739C27.5542 0.301774 27.0338 -0.00155588 26.497 6.00308e-06C26.3736 0.000331395 26.1287 0.0717225 25.9527 0.158667Z" fill="white"/>
</svg>
