<svg width="135" height="40" viewBox="0 0 135 40" fill="none" xmlns="http://www.w3.org/2000/svg">
<g id="Group">
<path id="Vector" d="M129.792 40H5.2521C2.51226 40 0.270508 37.75 0.270508 35V5.00002C0.270508 2.25 2.51221 0 5.2521 0H129.792C132.532 0 134.773 2.25 134.773 5.00002V35C134.773 37.75 132.532 40 129.792 40Z" fill="black"/>
<path id="Vector_2" d="M129.792 0H5.2521C2.51226 0 0.270508 2.25 0.270508 5.00002V35C0.270508 37.75 2.51221 40 5.2521 40H129.792C132.532 40 134.773 37.75 134.773 35V5.00002C134.773 2.25 132.532 0 129.792 0ZM129.792 0.799975C132.099 0.799975 133.976 2.68441 133.976 5.00002V35C133.976 37.316 132.099 39.2004 129.792 39.2004H5.2521C2.94505 39.2004 1.06757 37.316 1.06757 35V5.00002C1.06757 2.68441 2.94501 0.80002 5.2521 0.80002H129.792" fill="#A6A6A6"/>
<path id="Vector_3" d="M47.5148 10.244C47.5148 11.0819 47.2676 11.749 46.7726 12.2467C46.2102 12.8385 45.4773 13.1346 44.5763 13.1346C43.7135 13.1346 42.9799 12.8347 42.3767 12.2338C41.7723 11.6334 41.4707 10.8889 41.4707 10.0006C41.4707 9.11194 41.7723 8.36787 42.3767 7.76699C42.9799 7.16665 43.7135 6.86621 44.5763 6.86621C45.0045 6.86621 45.4144 6.95025 45.8035 7.11784C46.1927 7.28584 46.5048 7.50884 46.7384 7.78811L46.2129 8.31583C45.8171 7.84124 45.2723 7.60412 44.5763 7.60412C43.9471 7.60412 43.403 7.82605 42.9438 8.27017C42.4845 8.71474 42.2549 9.29126 42.2549 10.0006C42.2549 10.71 42.4845 11.2865 42.9438 11.7311C43.403 12.1753 43.9471 12.3971 44.5763 12.3971C45.2439 12.3971 45.8004 12.174 46.246 11.7272C46.5352 11.4361 46.7025 11.0315 46.7472 10.5119H44.5763V9.79124H47.4731C47.5011 9.94796 47.5147 10.0983 47.5147 10.244" fill="white"/>
<path id="Vector_4" d="M47.5148 10.2434H47.4151C47.4143 11.0622 47.1761 11.6981 46.702 12.1754L46.701 12.1762L46.7005 12.1771C46.1561 12.7484 45.4562 13.0328 44.5763 13.0341C43.7365 13.0328 43.0336 12.7453 42.4466 12.1625C41.861 11.5786 41.5714 10.8656 41.5703 10C41.5714 9.13405 41.861 8.42153 42.4466 7.83795C43.0336 7.25473 43.7365 6.96683 44.5763 6.96562C44.9916 6.96562 45.387 7.04697 45.7641 7.20903C46.1416 7.37235 46.4398 7.58636 46.662 7.85206L46.7383 7.78753L46.6678 7.71683L46.1424 8.24491L46.2128 8.31524L46.2895 8.25124C45.8754 7.75315 45.294 7.50205 44.5763 7.50354C43.9237 7.50273 43.3496 7.73679 42.8748 8.19776C42.3953 8.66022 42.1544 9.26919 42.1552 10C42.1544 10.7309 42.3953 11.3399 42.8748 11.8024C43.3496 12.2633 43.9237 12.4974 44.5763 12.4965C45.2659 12.4978 45.8537 12.2629 46.3164 11.7973C46.6254 11.4863 46.8006 11.0556 46.8465 10.5199L46.8558 10.4114H44.6759V9.89065H47.4731V9.79065L47.3749 9.80823C47.4022 9.95986 47.4151 10.1039 47.4151 10.2434H47.6143C47.6143 10.0915 47.6003 9.93523 47.5711 9.77277L47.5564 9.69066H44.4767V10.6113H46.7472V10.5114L46.648 10.5028C46.604 11.0059 46.4444 11.3849 46.1755 11.656C45.7474 12.0841 45.222 12.2953 44.5763 12.2966C43.9704 12.2957 43.4563 12.0864 43.013 11.6586C42.574 11.2325 42.3556 10.6883 42.3545 10C42.3556 9.31175 42.574 8.76763 43.013 8.34144C43.4563 7.91373 43.9703 7.70434 44.5763 7.70353C45.25 7.70515 45.7588 7.92856 46.1367 8.37973L46.2067 8.46333L46.8088 7.85827L46.8733 7.79346L46.8145 7.72344C46.5698 7.43055 46.2436 7.19806 45.8428 7.02548C45.4411 6.85237 45.0173 6.76563 44.5763 6.76563C43.6906 6.76486 42.9262 7.07735 42.3062 7.69575C41.6839 8.31295 41.3702 9.08874 41.3711 10C41.3702 10.9109 41.6839 11.6872 42.3066 12.3047C42.9262 12.9227 43.6906 13.2349 44.5763 13.2341C45.4987 13.2349 46.2639 12.9274 46.8446 12.3152L46.7725 12.2461L46.8429 12.3169C47.359 11.7993 47.615 11.1001 47.6143 10.2434H47.5148ZM52.1071 7.73715H49.3847V9.63956H51.8398V10.3605H49.3847V12.2629H52.1071V13H48.6173V7.00005H52.1071V7.73715Z" fill="white"/>
<path id="Vector_5" d="M52.107 7.73749V7.63749H49.285V9.7399H51.7401V10.2606L49.285 10.2609V12.3633H52.0074V12.9004H48.7168V7.10038H52.0074V7.73749H52.107H52.2066V6.90039H48.5176V13.1004H52.2066V12.1633H49.4843V10.4609H51.9393V9.5399H49.4843V7.83748H52.2066V7.73749H52.107ZM55.3462 13.0004H54.5776V7.73744H52.9079V7.00034H57.0159V7.73744H55.3462V13.0003" fill="white"/>
<path id="Vector_6" d="M55.3455 13.0004V12.9004H54.6765V7.63749H53.0069V7.10043H56.9155V7.63749H55.2459V13.0004H55.3455H55.4452V7.83748H57.1148V6.90039H52.8076V7.83744H54.4772V13.1003H55.4452V13.0003H55.3455M59.9874 13.0004V7.00034H60.7552V13.0003H59.9874" fill="white"/>
<path id="Vector_7" d="M59.9873 13.0004H60.087V7.10038H60.6555V12.9004H59.9873V13.0004V13.1004H60.8548V6.90039H59.8877V13.1004H59.9873V13.0004M64.1625 13.0004H63.3938V7.73744H61.7243V7.00034H65.8321V7.73744H64.1625V13.0003" fill="white"/>
<path id="Vector_8" d="M64.1628 13.0007V12.9006H63.4938V7.63774H61.8243V7.10068H65.7328V7.63774H64.0632V13.0006H64.1628H64.2625V7.83773H65.9321V6.90064H61.625V7.83769H63.2945V13.1006H64.2625V13.0006H64.1628M69.7928 11.723C70.2353 12.1725 70.7767 12.3971 71.4169 12.3971C72.0571 12.3971 72.5988 12.1725 73.0406 11.723C73.4835 11.2734 73.7054 10.6986 73.7054 10.0006C73.7054 9.30267 73.4835 8.72795 73.0406 8.27835C72.5988 7.82874 72.0571 7.60412 71.4169 7.60412C70.7767 7.60412 70.2353 7.82874 69.7928 8.27835C69.3511 8.72795 69.1293 9.30263 69.1293 10.0006C69.1293 10.6986 69.3511 11.2734 69.7928 11.723ZM73.6088 12.2252C73.0211 12.8318 72.2902 13.1346 71.4169 13.1346C70.5428 13.1346 69.8122 12.8318 69.2258 12.2252C68.6377 11.6193 68.345 10.8776 68.345 10.0006C68.345 9.12362 68.6377 8.3818 69.2258 7.77602C69.8123 7.1693 70.5428 6.86621 71.4169 6.86621C72.2856 6.86621 73.0145 7.17092 73.6049 7.77993C74.1945 8.3889 74.4895 9.12911 74.4895 10.0006C74.4895 10.8776 74.1952 11.6193 73.6088 12.2252Z" fill="white"/>
<path id="Vector_9" d="M69.7925 11.7224L69.7216 11.7927C70.1805 12.2602 70.753 12.4978 71.4166 12.4965C72.0797 12.4978 72.653 12.2602 73.1111 11.7927C73.573 11.3246 73.8054 10.7192 73.8046 10C73.8053 9.28096 73.573 8.67546 73.1111 8.20742C72.653 7.73984 72.0797 7.50237 71.4166 7.50354C70.753 7.50237 70.1805 7.73984 69.7216 8.20742C69.2609 8.67546 69.0281 9.28096 69.0293 10C69.0281 10.7191 69.2609 11.3246 69.7216 11.7927L69.7925 11.7224L69.8634 11.652C69.4407 11.2204 69.2294 10.6774 69.2286 10C69.2294 9.32276 69.4407 8.77977 69.8633 8.34805C70.2898 7.91647 70.7993 7.70474 71.4166 7.70358C72.0334 7.70474 72.544 7.91647 72.9695 8.34805C73.3929 8.77977 73.6042 9.32276 73.605 10C73.6042 10.6773 73.3929 11.2204 72.9695 11.652C72.544 12.0837 72.0335 12.2953 71.4166 12.2965C70.7993 12.2953 70.2899 12.0837 69.8634 11.652L69.7925 11.7224ZM73.6085 12.2246L73.5373 12.1552C72.966 12.7427 72.2673 13.0329 71.4166 13.0341C70.5654 13.0328 69.8668 12.7427 69.2966 12.1552C68.7265 11.5657 68.4452 10.8548 68.4444 10C68.4452 9.14533 68.7265 8.43443 69.2966 7.84496C69.8668 7.25743 70.5654 6.96684 71.4166 6.96567C72.2619 6.96684 72.9589 7.25865 73.5334 7.84923C74.1055 8.44144 74.3884 9.15122 74.3896 10C74.3884 10.8548 74.1063 11.5657 73.5373 12.1552L73.6085 12.2246L73.6801 12.2941C74.2841 11.6715 74.5896 10.8993 74.5889 10C74.5896 9.10596 74.2829 8.33524 73.6762 7.70987C73.0691 7.08202 72.3086 6.76455 71.4166 6.76563C70.5199 6.76455 69.7571 7.08054 69.1539 7.70596V7.70551C68.5487 8.32854 68.2443 9.10084 68.2451 10C68.2443 10.8993 68.5487 11.6715 69.1539 12.2945L69.1565 12.2974L69.1539 12.2941C69.7571 12.9195 70.5199 13.2349 71.4166 13.2341C72.3129 13.2349 73.0757 12.9195 73.6801 12.2941L73.6085 12.2246ZM75.5672 13.0001V7H76.5021L79.4074 11.6676H79.4405L79.4074 10.5113V7H80.176V13H79.3743L76.3347 8.10621H76.3016L76.3347 9.2629V13H75.5673" fill="white"/>
<path id="Vector_10" d="M75.5676 13.0004H75.6672V7.10038H76.4472L79.3524 11.768H79.5431L79.5073 10.5102V7.10043H80.0767V12.9004H79.4299L76.3904 8.0066H76.1997L76.2354 9.2649V12.9004H75.5676V13.0004V13.1004H76.4347V9.26171L76.4016 8.1039L76.302 8.1066V8.2066H76.3351V8.1066L76.2506 8.15977L79.3194 13.1004H80.276V6.90039H79.3081V10.5129L79.3412 11.6707L79.4408 11.668V11.568H79.4077V11.668L79.4922 11.6149L76.5576 6.90039H75.468V13.1004H75.5676V13.0004M106.813 30.0004H108.672V17.4992H106.813L106.813 30.0004ZM123.558 22.0024L121.427 27.4223H121.363L119.151 22.0024H117.149L120.465 29.5777L118.574 33.7914H120.514L125.625 22.0024L123.558 22.0024ZM113.015 28.5805C112.405 28.5805 111.556 28.275 111.556 27.5188C111.556 26.5539 112.614 26.184 113.527 26.184C114.345 26.184 114.729 26.3609 115.226 26.6024C115.081 27.7602 114.088 28.5805 113.015 28.5805ZM113.239 21.7289C111.893 21.7289 110.499 22.3242 109.922 23.643L111.572 24.3344C111.925 23.643 112.581 23.4176 113.271 23.4176C114.232 23.4176 115.21 23.9969 115.226 25.0262V25.1547C114.889 24.9617 114.169 24.6723 113.287 24.6723C111.508 24.6723 109.697 25.6531 109.697 27.4867C109.697 29.1594 111.156 30.2371 112.79 30.2371C114.04 30.2371 114.729 29.6742 115.162 29.0149H115.226V29.9797H117.02V25.1867C117.02 22.9676 115.37 21.7289 113.239 21.7289ZM101.749 23.5242H99.1052V19.2391H101.749C103.139 19.2391 103.928 20.3941 103.928 21.3816C103.928 22.3504 103.139 23.5242 101.749 23.5242ZM101.702 17.4992H97.2471V30.0004H99.1052V25.2641H101.702C103.762 25.2641 105.788 23.7668 105.788 21.3816C105.788 18.9965 103.762 17.4992 101.702 17.4992ZM77.4104 28.5828C76.126 28.5828 75.0507 27.5035 75.0507 26.0211C75.0507 24.5231 76.126 23.4274 77.4104 23.4274C78.6784 23.4274 79.6735 24.5231 79.6735 26.0211C79.6735 27.5035 78.6784 28.5828 77.4104 28.5828ZM79.5451 22.7024H79.4809C79.0637 22.2031 78.2607 21.752 77.2497 21.752C75.1309 21.752 73.1889 23.6207 73.1889 26.0211C73.1889 28.4055 75.1309 30.2582 77.2497 30.2582C78.2607 30.2582 79.0637 29.807 79.4809 29.2918H79.5451V29.9039C79.5451 31.5313 78.6784 32.4012 77.282 32.4012C76.1424 32.4012 75.4361 31.5793 75.1469 30.8867L73.526 31.5633C73.9914 32.691 75.2274 34.0766 77.282 34.0766C79.4649 34.0766 81.3108 32.7875 81.3108 29.6461V22.0098H79.5451V22.7024ZM82.5948 30.0004H84.4567V17.4988H82.5948V30.0004ZM87.2015 25.8762C87.1533 24.2328 88.4695 23.3953 89.4164 23.3953C90.1553 23.3953 90.781 23.7656 90.9892 24.2977L87.2015 25.8762ZM92.9799 24.4586C92.6272 23.5078 91.5511 21.752 89.3522 21.752C87.1693 21.752 85.3556 23.4758 85.3556 26.0051C85.3556 28.3895 87.1533 30.2582 89.5608 30.2582C91.5033 30.2582 92.6272 29.066 93.0925 28.3734L91.6478 27.4066C91.1665 28.1156 90.508 28.5828 89.5608 28.5828C88.6139 28.5828 87.9399 28.1477 87.5063 27.2941L93.1722 24.9418L92.9799 24.4586ZM47.8385 23.057V24.8613H52.1401C52.0117 25.8762 51.6746 26.6172 51.1609 27.1328C50.5351 27.7613 49.5559 28.4539 47.8384 28.4539C45.1899 28.4539 43.1195 26.3113 43.1195 23.6531C43.1195 20.9949 45.19 18.852 47.8385 18.852C49.2671 18.852 50.3101 19.416 51.0807 20.141L52.3487 18.8684C51.2734 17.8371 49.8447 17.0477 47.8385 17.0477C44.2108 17.0477 41.1611 20.0121 41.1611 23.6531C41.1611 27.2941 44.2108 30.2582 47.8385 30.2582C49.7968 30.2582 51.2734 29.6141 52.4289 28.4055C53.6167 27.2133 53.9861 25.5379 53.9861 24.1848C53.9861 23.7656 53.9541 23.3793 53.8895 23.057H47.8385ZM58.8766 28.5828C57.5922 28.5828 56.4846 27.5195 56.4846 26.0051C56.4846 24.4746 57.5922 23.4274 58.8766 23.4274C60.1604 23.4274 61.268 24.4746 61.268 26.0051C61.268 27.5195 60.1604 28.5828 58.8766 28.5828ZM58.8766 21.752C56.5328 21.752 54.6227 23.5402 54.6227 26.0051C54.6227 28.4539 56.5328 30.2582 58.8766 30.2582C61.2198 30.2582 63.13 28.4539 63.13 26.0051C63.13 23.5402 61.2198 21.752 58.8766 21.752ZM68.1555 28.5828C66.8717 28.5828 65.7639 27.5195 65.7639 26.0051C65.7639 24.4746 66.8717 23.4274 68.1555 23.4274C69.4395 23.4274 70.5471 24.4746 70.5471 26.0051C70.5471 27.5195 69.4394 28.5828 68.1555 28.5828ZM68.1555 21.752C65.8119 21.752 63.9021 23.5402 63.9021 26.0051C63.9021 28.4539 65.8119 30.2582 68.1555 30.2582C70.4988 30.2582 72.409 28.4539 72.409 26.0051C72.409 23.5402 70.4988 21.752 68.1555 21.752Z" fill="white"/>
<path id="Vector_11" d="M10.74 7.61124C10.4056 7.91402 10.2061 8.41903 10.2061 9.0894V8.93785V31.059V30.9132C10.2061 31.5323 10.3772 32.0104 10.6672 32.3183L10.7412 32.3894V32.3897C10.9758 32.6023 11.2767 32.7151 11.6215 32.7148C11.9585 32.7148 12.3376 32.6069 12.7377 32.3793L27.1995 24.132L32.167 21.2988C32.7979 20.939 33.1521 20.475 33.2113 20.0023V20.0003C33.1521 19.5266 32.7979 19.0628 32.167 18.7031L27.1991 15.8702L12.7378 7.62293C12.3368 7.39484 11.9574 7.28662 11.6196 7.28662C11.2751 7.28662 10.9746 7.39911 10.7401 7.61124H10.74Z" fill="#00C1FF"/>
<path id="Vector_12" d="M10.7412 32.3892L10.6672 32.3181C10.3772 32.0102 10.2061 31.5321 10.2061 30.913V31.0587V8.94306V9.08913C10.2061 8.41877 10.4056 7.91375 10.74 7.61097L23.0842 20.0005L10.7412 32.3892Z" fill="url(#paint0_linear_1_2209)"/>
<path id="Vector_13" d="M27.2002 24.1323L23.085 20.0011L27.1999 15.8706L32.1678 18.7034C32.7987 19.0632 33.1528 19.5269 33.212 20.0007V20.0026C33.1528 20.4753 32.7987 20.9394 32.1678 21.2991L27.2003 24.1323" fill="url(#paint1_linear_1_2209)"/>
<path id="Vector_14" d="M11.6215 32.7153C11.2767 32.7156 10.9758 32.6028 10.7412 32.3903V32.3899L23.0842 20.0013L27.1995 24.1325L12.7377 32.3798C12.3376 32.6075 11.9585 32.7153 11.6215 32.7153Z" fill="url(#paint2_linear_1_2209)"/>
<path id="Vector_15" d="M23.0845 20.0005L10.7402 7.61099C10.9749 7.39886 11.2754 7.28637 11.6198 7.28637C11.9576 7.28637 12.3371 7.39455 12.738 7.62267L27.1994 15.87L23.0844 20.0005" fill="url(#paint3_linear_1_2209)"/>
<path id="Vector_16" d="M11.6227 32.8608C11.2779 32.8608 10.9766 32.7479 10.7419 32.5355L10.7415 32.5358C10.7406 32.5348 10.7395 32.5339 10.7384 32.5331L10.6742 32.4702C10.6722 32.4682 10.6703 32.4659 10.668 32.4636L10.742 32.3893C10.9766 32.6018 11.2775 32.7147 11.6224 32.7143C11.9593 32.7143 12.3384 32.6066 12.7385 32.3788L27.2002 24.1315L27.2929 24.2246L27.1991 24.2781L12.7384 32.5249C12.3738 32.7323 12.027 32.8405 11.7137 32.8585C11.6834 32.86 11.653 32.8608 11.6227 32.8608Z" fill="url(#paint4_linear_1_2209)"/>
<path id="Vector_17" d="M10.6672 32.4639C10.3772 32.156 10.2061 31.6783 10.2061 31.0588V30.9131C10.2061 31.5322 10.3772 32.0103 10.6672 32.3182L10.7412 32.3893L10.6672 32.4639Z" fill="url(#paint5_linear_1_2209)"/>
<path id="Vector_18" d="M27.2929 24.2255L27.2002 24.1325L32.1677 21.2993C32.7986 20.9397 33.1528 20.4755 33.212 20.0028C33.212 20.1763 33.1734 20.3498 33.0968 20.5186C32.9423 20.8588 32.6325 21.1802 32.1678 21.4454L27.2929 24.2256" fill="url(#paint6_linear_1_2209)"/>
<path id="Vector_19" d="M33.2114 20C33.1522 19.5262 32.798 19.0625 32.1672 18.7027L27.1992 15.8699L27.2919 15.7769H27.2923L32.1672 18.557C32.8627 18.9539 33.211 19.4769 33.2114 20Z" fill="url(#paint7_linear_1_2209)"/>
<path id="Vector_20" d="M10.2061 9.08936V8.93655C10.2061 8.88145 10.2075 8.82757 10.2104 8.77525V8.77287C10.2104 8.77215 10.2104 8.77139 10.2106 8.77058V8.76469C10.2406 8.23145 10.4056 7.81551 10.6672 7.53776L10.74 7.61115C10.4056 7.91398 10.2061 8.41899 10.2061 9.08936Z" fill="url(#paint8_linear_1_2209)"/>
<path id="Vector_21" d="M27.1998 15.8701L12.7385 7.62274C12.3376 7.39465 11.9582 7.28648 11.6203 7.28648C11.2759 7.28648 10.9754 7.39897 10.7408 7.6111L10.668 7.53766C10.6907 7.51349 10.7144 7.49018 10.7388 7.46778C10.7396 7.46697 10.7408 7.46616 10.7416 7.46539C10.9743 7.25488 11.2716 7.14239 11.613 7.14037H11.6203C11.9582 7.14037 12.3376 7.24859 12.7385 7.47676L27.2929 15.7768L27.2925 15.7771L27.1998 15.8701Z" fill="url(#paint9_linear_1_2209)"/>
</g>
<defs>
<linearGradient id="paint0_linear_1_2209" x1="18.0947" y1="8.70932" x2="7.43473" y2="19.3644" gradientUnits="userSpaceOnUse">
<stop stop-color="#00A0FF"/>
<stop offset="0.00657" stop-color="#00A1FF"/>
<stop offset="0.2601" stop-color="#00BEFF"/>
<stop offset="0.5122" stop-color="#00D2FF"/>
<stop offset="0.7604" stop-color="#00DFFF"/>
<stop offset="1" stop-color="#00E3FF"/>
</linearGradient>
<linearGradient id="paint1_linear_1_2209" x1="33.9807" y1="19.9297" x2="9.87277" y2="19.9297" gradientUnits="userSpaceOnUse">
<stop stop-color="#FFE000"/>
<stop offset="0.4087" stop-color="#FFBD00"/>
<stop offset="0.7754" stop-color="#FFA500"/>
<stop offset="1" stop-color="#FF9C00"/>
</linearGradient>
<linearGradient id="paint2_linear_1_2209" x1="25.0146" y1="23.929" x2="6.95071" y2="41.8527" gradientUnits="userSpaceOnUse">
<stop stop-color="#FF3A44"/>
<stop offset="1" stop-color="#C31162"/>
</linearGradient>
<linearGradient id="paint3_linear_1_2209" x1="7.55878" y1="5.77419" x2="15.6095" y2="13.7747" gradientUnits="userSpaceOnUse">
<stop stop-color="#32A071"/>
<stop offset="0.0685" stop-color="#2DA771"/>
<stop offset="0.4762" stop-color="#15CF74"/>
<stop offset="0.8009" stop-color="#06E775"/>
<stop offset="1" stop-color="#00F076"/>
</linearGradient>
<linearGradient id="paint4_linear_1_2209" x1="25.0064" y1="26.7937" x2="10.5397" y2="41.2539" gradientUnits="userSpaceOnUse">
<stop stop-color="#CC2E36"/>
<stop offset="1" stop-color="#9C0E4E"/>
</linearGradient>
<linearGradient id="paint5_linear_1_2209" x1="11.8505" y1="8.70939" x2="2.45916" y2="18.0965" gradientUnits="userSpaceOnUse">
<stop stop-color="#008DE0"/>
<stop offset="0.00657" stop-color="#008DE0"/>
<stop offset="0.2601" stop-color="#00A7E0"/>
<stop offset="0.5122" stop-color="#00B8E0"/>
<stop offset="0.7604" stop-color="#00C4E0"/>
<stop offset="1" stop-color="#00C7E0"/>
</linearGradient>
<linearGradient id="paint6_linear_1_2209" x1="33.9807" y1="20.0019" x2="9.87269" y2="20.0019" gradientUnits="userSpaceOnUse">
<stop stop-color="#E0C500"/>
<stop offset="0.4087" stop-color="#E0A600"/>
<stop offset="0.7754" stop-color="#E09100"/>
<stop offset="1" stop-color="#E08900"/>
</linearGradient>
<linearGradient id="paint7_linear_1_2209" x1="33.9801" y1="20.001" x2="9.8722" y2="20.001" gradientUnits="userSpaceOnUse">
<stop stop-color="#FFE840"/>
<stop offset="0.4087" stop-color="#FFCE40"/>
<stop offset="0.7754" stop-color="#FFBC40"/>
<stop offset="1" stop-color="#FFB540"/>
</linearGradient>
<linearGradient id="paint8_linear_1_2209" x1="11.8403" y1="8.72654" x2="2.79564" y2="17.3754" gradientUnits="userSpaceOnUse">
<stop stop-color="#40B8FF"/>
<stop offset="0.00657" stop-color="#40B9FF"/>
<stop offset="0.2601" stop-color="#40CEFF"/>
<stop offset="0.5122" stop-color="#40DDFF"/>
<stop offset="0.7604" stop-color="#40E7FF"/>
<stop offset="1" stop-color="#40EAFF"/>
</linearGradient>
<linearGradient id="paint9_linear_1_2209" x1="7.54132" y1="8.39444" x2="14.0013" y2="14.8516" gradientUnits="userSpaceOnUse">
<stop stop-color="#65B895"/>
<stop offset="0.0685" stop-color="#62BD95"/>
<stop offset="0.4762" stop-color="#50DB97"/>
<stop offset="0.8009" stop-color="#44ED98"/>
<stop offset="1" stop-color="#40F498"/>
</linearGradient>
</defs>
</svg>
