<svg width="120" height="40" viewBox="0 0 120 40" fill="none" xmlns="http://www.w3.org/2000/svg">
<g id="Group 17">
<path id="Vector" d="M109.829 9.99998e-05H9.50826C9.14258 9.99998e-05 8.78128 9.99996e-05 8.41649 0.00209999C8.11124 0.00409999 7.80839 0.00989997 7.50014 0.0148C6.83052 0.0226986 6.16247 0.0817696 5.5018 0.1915C4.84205 0.303619 4.20297 0.515001 3.60617 0.818498C3.01012 1.12458 2.4655 1.52228 1.99206 1.9972C1.51613 2.47073 1.1194 3.01808 0.817128 3.61819C0.514013 4.21716 0.303838 4.85902 0.193861 5.52159C0.0828306 6.18329 0.0230842 6.85262 0.0151578 7.52358C0.00588364 7.83018 0.00488641 8.13778 0 8.44448V31.5586C0.00488641 31.8691 0.00588364 32.1699 0.0151578 32.4806C0.0230917 33.1515 0.0828381 33.8208 0.193861 34.4824C0.303542 35.1453 0.51373 35.7875 0.817128 36.3867C1.11926 36.9849 1.51604 37.5301 1.99206 38.001C2.46371 38.478 3.00868 38.876 3.60617 39.1797C4.20297 39.484 4.84198 39.6967 5.5018 39.8105C6.16258 39.9194 6.83056 39.9785 7.50014 39.9873C7.80829 39.9941 8.11124 39.998 8.41659 39.998C8.78128 40 9.14258 40 9.50826 40H109.829C110.188 40 110.552 40 110.91 39.998C111.214 39.998 111.526 39.9941 111.83 39.9873C112.498 39.9789 113.165 39.9198 113.824 39.8105C114.486 39.6958 115.127 39.4833 115.727 39.1797C116.324 38.8758 116.869 38.4779 117.34 38.001C117.815 37.5282 118.212 36.9835 118.518 36.3867C118.819 35.7871 119.027 35.145 119.135 34.4824C119.247 33.8207 119.309 33.1515 119.321 32.4805C119.325 32.1699 119.325 31.8691 119.325 31.5586C119.333 31.1953 119.333 30.834 119.333 30.4648V9.53628C119.333 9.16998 119.333 8.80678 119.325 8.44448C119.325 8.13778 119.325 7.83018 119.321 7.52348C119.309 6.85247 119.247 6.18328 119.135 5.52149C119.027 4.85937 118.819 4.21764 118.518 3.61829C117.903 2.41533 116.926 1.43613 115.727 0.818398C115.127 0.515646 114.486 0.304319 113.824 0.1914C113.165 0.0812029 112.498 0.0221281 111.83 0.0147C111.526 0.00979998 111.214 0.00389999 110.91 0.00199999C110.552 0 110.188 9.99998e-05 109.829 9.99998e-05Z" fill="#A6A6A6"/>
<path id="Vector_2" d="M8.42092 39.125C8.11706 39.125 7.82059 39.1211 7.51913 39.1143C6.89466 39.1062 6.27165 39.0517 5.65521 38.9513C5.08041 38.852 4.52358 38.6673 4.0031 38.4033C3.48738 38.1415 3.017 37.7983 2.60998 37.3867C2.19704 36.98 1.85324 36.5083 1.59221 35.9902C1.32833 35.4688 1.14571 34.9099 1.05071 34.333C0.948158 33.7131 0.892686 33.0863 0.884776 32.458C0.878394 32.2471 0.870117 31.545 0.870117 31.545V8.44438C0.870117 8.44438 0.878893 7.75298 0.884776 7.54978C0.892375 6.92249 0.947548 6.29669 1.04982 5.67779C1.145 5.09931 1.32778 4.53881 1.59181 4.01569C1.85184 3.49799 2.19368 3.02589 2.6041 2.6177C3.01407 2.20562 3.48598 1.86059 4.00261 1.5952C4.5219 1.3321 5.07768 1.14875 5.65132 1.0513C6.2698 0.94992 6.89498 0.895134 7.52162 0.8874L8.42142 0.875H110.905L111.816 0.8877C112.437 0.895098 113.056 0.949452 113.669 1.0503C114.248 1.149 114.81 1.33366 115.335 1.5982C116.37 2.13303 117.212 2.9792 117.744 4.01809C118.003 4.53762 118.183 5.09358 118.277 5.66709C118.381 6.29105 118.439 6.92176 118.451 7.55418C118.454 7.83738 118.454 8.14158 118.454 8.44438C118.462 8.81938 118.462 9.17628 118.462 9.53618V30.4647C118.462 30.828 118.462 31.1825 118.454 31.5399C118.454 31.8651 118.454 32.163 118.45 32.4696C118.438 33.0908 118.381 33.7103 118.279 34.3231C118.186 34.9042 118.004 35.4674 117.741 35.9931C117.478 36.5055 117.136 36.9732 116.728 37.3788C116.32 37.7926 115.849 38.1379 115.332 38.4013C114.809 38.6673 114.248 38.8526 113.669 38.9511C113.053 39.0521 112.429 39.1066 111.805 39.1142C111.507 39.1212 111.208 39.1248 110.91 39.1249L109.829 39.1269L8.42092 39.125Z" fill="black"/>
<path id="Vector_3" d="M24.6997 20.3008C24.7104 19.4661 24.9315 18.6478 25.3424 17.9218C25.7533 17.1959 26.3406 16.586 27.0497 16.1488C26.5992 15.5036 26.0049 14.9727 25.314 14.5981C24.6231 14.2236 23.8547 14.0157 23.0696 13.9911C21.395 13.8148 19.7716 14.9959 18.9182 14.9959C18.0484 14.9959 16.7346 14.0086 15.3198 14.0378C14.4047 14.0674 13.5128 14.3343 12.7311 14.8123C11.9493 15.2904 11.3044 15.9633 10.8592 16.7656C8.93056 20.1141 10.3692 25.0351 12.2167 27.7417C13.1411 29.0671 14.2212 30.5475 15.6348 30.495C17.018 30.4375 17.5345 29.6105 19.2043 29.6105C20.8585 29.6105 21.3431 30.495 22.7853 30.4616C24.2696 30.4375 25.2047 29.1304 26.0966 27.7925C26.7607 26.8481 27.2718 25.8044 27.6108 24.7C26.7485 24.3342 26.0126 23.7221 25.495 22.9398C24.9773 22.1575 24.7007 21.2397 24.6997 20.3008ZM21.9757 12.211C22.7849 11.2368 23.1836 9.98463 23.0871 8.72041C21.8507 8.85063 20.7086 9.44318 19.8884 10.38C19.4874 10.8377 19.1802 11.3701 18.9845 11.9469C18.7888 12.5237 18.7084 13.1334 18.7479 13.7414C19.3663 13.7478 19.9781 13.6134 20.5372 13.3483C21.0963 13.0832 21.5882 12.6943 21.9757 12.211ZM42.1845 27.1398H37.4642L36.3307 30.4962H34.3312L38.8023 18.0782H40.8795L45.3505 30.4962H43.317L42.1845 27.1398ZM37.9531 25.5909H41.6946L39.8502 20.1437H39.7985L37.9531 25.5909ZM55.0062 25.9699C55.0062 28.7833 53.5045 30.5909 51.2384 30.5909C50.6643 30.621 50.0934 30.4884 49.591 30.2083C49.0886 29.9281 48.675 29.5118 48.3976 29.0069H48.3547V33.4913H46.5015V21.4425H48.2954V22.9484H48.3295C48.6196 22.4459 49.0402 22.0317 49.5464 21.7499C50.0526 21.468 50.6256 21.3291 51.2043 21.3478C53.4957 21.3478 55.0062 23.1643 55.0062 25.9699ZM53.1013 25.9699C53.1013 24.1369 52.1567 22.9318 50.7155 22.9318C49.2994 22.9318 48.347 24.1622 48.347 25.9698C48.347 27.7941 49.2994 29.0158 50.7155 29.0158C52.1567 29.0158 53.1013 27.8196 53.1013 25.9699ZM64.9434 25.9699C64.9434 28.7833 63.4418 30.5909 61.1756 30.5909C60.6015 30.621 60.0306 30.4884 59.5282 30.2082C59.0258 29.9281 58.6123 29.5117 58.3349 29.0069H58.292V33.4913H56.4387V21.4425H58.2326V22.9484H58.2667C58.5568 22.4459 58.9774 22.0317 59.4836 21.7499C59.9898 21.468 60.5628 21.3291 61.1415 21.3478C63.433 21.3478 64.9434 23.1643 64.9434 25.9699ZM63.0386 25.9699C63.0386 24.1369 62.0939 22.9318 60.6526 22.9318C59.2366 22.9318 58.2842 24.1622 58.2842 25.9698C58.2842 27.7941 59.2366 29.0158 60.6526 29.0158C62.0939 29.0158 63.0386 27.8196 63.0386 25.9699ZM71.5111 27.0363C71.6484 28.2677 72.8414 29.0763 74.4716 29.0763C76.0337 29.0763 77.1575 28.2677 77.1575 27.1573C77.1575 26.1934 76.4797 25.6163 74.8749 25.2208L73.2698 24.8331C70.996 24.2823 69.9403 23.2159 69.9403 21.4854C69.9403 19.3428 71.8023 17.8712 74.4463 17.8712C77.063 17.8712 78.8569 19.3428 78.9172 21.4854H77.0464C76.9344 20.2462 75.9129 19.4981 74.4199 19.4981C72.9271 19.4981 71.9055 20.255 71.9055 21.3565C71.9055 22.2345 72.558 22.7511 74.1541 23.1465L75.5185 23.4825C78.0592 24.085 79.115 25.1085 79.115 26.9248C79.115 29.2481 77.2695 30.7032 74.3343 30.7032C71.5879 30.7032 69.7338 29.2822 69.614 27.0362L71.5111 27.0363ZM83.1146 19.3V21.4425H84.8315V22.9142H83.1146V27.9054C83.1146 28.6808 83.4583 29.0421 84.2131 29.0421C84.4169 29.0385 84.6204 29.0241 84.8227 28.9991V30.4621C84.4834 30.5256 84.1385 30.5543 83.7934 30.5479C81.9655 30.5479 81.2525 29.8595 81.2525 28.1036V22.9142H79.9398V21.4425H81.2525V19.3H83.1146ZM85.8258 25.9699C85.8258 23.1212 87.4989 21.3312 90.1079 21.3312C92.7256 21.3312 94.3909 23.1212 94.3909 25.9699C94.3909 28.8263 92.7343 30.6085 90.1078 30.6085C87.4823 30.6085 85.8258 28.8263 85.8258 25.9699ZM92.5025 25.9699C92.5025 24.0158 91.6095 22.8624 90.1078 22.8624C88.6062 22.8624 87.7141 24.0245 87.7141 25.9699C87.7141 27.9318 88.6062 29.0763 90.1078 29.0763C91.6095 29.0763 92.5025 27.9318 92.5025 25.9699ZM95.9187 21.4425H97.6863V22.9835H97.7292C97.8488 22.5022 98.13 22.0769 98.5255 21.779C98.921 21.4811 99.4067 21.3288 99.901 21.3478C100.115 21.347 100.328 21.3703 100.536 21.4171V23.1554C100.266 23.0728 99.985 23.0348 99.7032 23.0431C99.434 23.0321 99.1656 23.0797 98.9164 23.1826C98.6673 23.2855 98.4433 23.4412 98.2598 23.6391C98.0764 23.837 97.9378 24.0724 97.8536 24.329C97.7694 24.5857 97.7416 24.8576 97.7721 25.1261V30.4962H95.9187V21.4425ZM109.08 27.837C108.831 29.4806 107.235 30.6085 105.193 30.6085C102.566 30.6085 100.936 28.8439 100.936 26.0128C100.936 23.173 102.575 21.3312 105.115 21.3312C107.613 21.3312 109.184 23.0519 109.184 25.797V26.4337H102.807V26.546C102.777 26.8792 102.819 27.2148 102.929 27.5307C103.039 27.8465 103.214 28.1353 103.444 28.3779C103.674 28.6204 103.952 28.8112 104.261 28.9375C104.57 29.0638 104.902 29.1228 105.236 29.1105C105.674 29.1516 106.113 29.0499 106.489 28.8205C106.864 28.591 107.156 28.2461 107.321 27.837H109.08ZM102.816 25.1349H107.329C107.346 24.8353 107.301 24.5355 107.196 24.2542C107.092 23.973 106.931 23.7165 106.723 23.5007C106.515 23.2849 106.265 23.1146 105.988 23.0004C105.711 22.8862 105.414 22.8305 105.115 22.837C104.813 22.8352 104.514 22.8933 104.235 23.0081C103.955 23.1228 103.702 23.2919 103.488 23.5055C103.274 23.7192 103.105 23.9731 102.989 24.2528C102.874 24.5324 102.815 24.8322 102.816 25.1349ZM37.7208 8.73111C38.1093 8.70315 38.4992 8.762 38.8623 8.90344C39.2254 9.04487 39.5527 9.26536 39.8206 9.54899C40.0884 9.83262 40.2901 10.1723 40.4112 10.5436C40.5322 10.9149 40.5696 11.3085 40.5206 11.696C40.5206 13.6022 39.4932 14.698 37.7208 14.698H35.5715V8.73101L37.7208 8.73111ZM36.4957 13.8541H37.6176C37.8952 13.8707 38.173 13.8251 38.4309 13.7204C38.6887 13.6158 38.92 13.4549 39.1079 13.2493C39.2959 13.0438 39.4358 12.7987 39.5174 12.5321C39.599 12.2655 39.6204 11.984 39.5798 11.7081C39.6174 11.4333 39.5939 11.1535 39.5111 10.8889C39.4282 10.6242 39.288 10.3812 39.1004 10.1773C38.9129 9.97333 38.6827 9.81352 38.4263 9.70928C38.17 9.60504 37.8938 9.55895 37.6176 9.57431H36.4957V13.8541ZM41.5646 12.4445C41.5364 12.1486 41.5701 11.85 41.6637 11.5679C41.7573 11.2859 41.9086 11.0265 42.108 10.8065C42.3074 10.5866 42.5504 10.4108 42.8215 10.2905C43.0926 10.1702 43.3858 10.1081 43.6822 10.1081C43.9787 10.1081 44.2718 10.1702 44.5429 10.2905C44.814 10.4108 45.0571 10.5866 45.2565 10.8065C45.4558 11.0265 45.6072 11.2859 45.7007 11.5679C45.7943 11.85 45.8281 12.1486 45.7998 12.4445C45.8287 12.7408 45.7954 13.0398 45.7021 13.3224C45.6088 13.605 45.4576 13.8649 45.2581 14.0854C45.0587 14.3058 44.8154 14.482 44.544 14.6026C44.2726 14.7232 43.9791 14.7855 43.6822 14.7855C43.3854 14.7855 43.0918 14.7232 42.8204 14.6026C42.549 14.482 42.3057 14.3058 42.1063 14.0854C41.9069 13.8649 41.7556 13.605 41.6623 13.3224C41.569 13.0398 41.5358 12.7408 41.5646 12.4445ZM44.8884 12.4445C44.8884 11.4684 44.4511 10.8976 43.6837 10.8976C42.9134 10.8976 42.4801 11.4684 42.4801 12.4445C42.4801 13.4284 42.9135 13.9948 43.6837 13.9948C44.4511 13.9948 44.8884 13.4245 44.8884 12.4445ZM51.4298 14.6979H50.5103L49.5823 11.3815H49.5122L48.5881 14.6979H47.6775L46.4398 10.1949H47.3386L48.143 13.6309H48.2092L49.1325 10.1949H49.9826L50.9058 13.6309H50.9759L51.7764 10.1949H52.6626L51.4298 14.6979ZM53.7037 10.195H54.5568V10.9103H54.623C54.7353 10.6534 54.9248 10.438 55.165 10.2942C55.4052 10.1503 55.6842 10.0853 55.9631 10.108C56.1816 10.0915 56.4009 10.1246 56.605 10.2047C56.809 10.2848 56.9924 10.4099 57.1417 10.5707C57.291 10.7316 57.4022 10.924 57.4673 11.1338C57.5323 11.3437 57.5494 11.5655 57.5173 11.7828V14.6978H56.6311V12.006C56.6311 11.2824 56.3175 10.9225 55.6621 10.9225C55.5138 10.9156 55.3657 10.9409 55.228 10.9967C55.0903 11.0526 54.9663 11.1376 54.8645 11.246C54.7627 11.3544 54.6854 11.4835 54.638 11.6247C54.5906 11.7658 54.5742 11.9155 54.5899 12.0636V14.6979H53.7037V10.195ZM58.9294 8.43711H59.8156V14.6979H58.9294V8.43711ZM61.0475 12.4445C61.0193 12.1485 61.053 11.8499 61.1466 11.5678C61.2402 11.2857 61.3916 11.0263 61.591 10.8063C61.7904 10.5863 62.0335 10.4105 62.3046 10.2902C62.5757 10.1699 62.8689 10.1078 63.1654 10.1078C63.4619 10.1078 63.7551 10.1699 64.0263 10.2902C64.2974 10.4105 64.5405 10.5863 64.7399 10.8063C64.9393 11.0263 65.0907 11.2857 65.1842 11.5678C65.2778 11.8499 65.3116 12.1485 65.2833 12.4445C65.312 12.7407 65.2786 13.0397 65.1853 13.3222C65.0919 13.6047 64.9406 13.8645 64.7411 14.0849C64.5417 14.3052 64.2985 14.4813 64.0271 14.6019C63.7557 14.7224 63.4622 14.7846 63.1654 14.7846C62.8686 14.7846 62.5751 14.7224 62.3038 14.6019C62.0324 14.4813 61.7892 14.3052 61.5897 14.0849C61.3903 13.8645 61.239 13.6047 61.1456 13.3222C61.0522 13.0397 61.0188 12.7407 61.0475 12.4445ZM64.3713 12.4445C64.3713 11.4684 63.934 10.8976 63.1666 10.8976C62.3963 10.8976 61.963 11.4684 61.963 12.4445C61.963 13.4284 62.3964 13.9948 63.1666 13.9948C63.934 13.9948 64.3713 13.4245 64.3713 12.4445ZM66.2163 13.4245C66.2163 12.6139 66.8181 12.1466 67.8864 12.0802L69.1027 12.0099V11.6212C69.1027 11.1456 68.7892 10.8771 68.1835 10.8771C67.6888 10.8771 67.3459 11.0592 67.2476 11.3776H66.3896C66.4801 10.6041 67.2057 10.1081 68.2244 10.1081C69.3501 10.1081 69.9851 10.6701 69.9851 11.6212V14.6979H69.1319V14.0651H69.0618C68.9195 14.2921 68.7197 14.4771 68.4827 14.6013C68.2458 14.7255 67.9802 14.7845 67.7131 14.7721C67.5246 14.7918 67.3341 14.7716 67.1538 14.7129C66.9735 14.6542 66.8076 14.5583 66.6665 14.4313C66.5255 14.3043 66.4126 14.1491 66.335 13.9757C66.2575 13.8023 66.217 13.6145 66.2163 13.4245ZM69.1027 13.0397V12.6632L68.0062 12.7335C67.3878 12.775 67.1073 12.986 67.1073 13.3829C67.1073 13.7882 67.4579 14.0241 67.94 14.0241C68.0812 14.0384 68.2239 14.0241 68.3595 13.982C68.4952 13.94 68.621 13.8709 68.7295 13.7791C68.8379 13.6872 68.9269 13.5745 68.991 13.4474C69.0551 13.3204 69.0931 13.1817 69.1027 13.0397ZM71.1498 12.4445C71.1498 11.0216 71.8792 10.1203 73.0137 10.1203C73.2944 10.1073 73.5729 10.1747 73.8168 10.3146C74.0606 10.4545 74.2597 10.6611 74.3908 10.9103H74.457V8.43701H75.3432V14.6978H74.494V13.9863H74.4239C74.2827 14.2338 74.0767 14.4378 73.8282 14.5763C73.5796 14.7148 73.298 14.7825 73.0138 14.772C71.8714 14.772 71.1498 13.8707 71.1498 12.4445ZM72.0653 12.4445C72.0653 13.3995 72.5142 13.9743 73.2649 13.9743C74.0119 13.9743 74.4736 13.3913 74.4736 12.4483C74.4736 11.5099 74.0071 10.9186 73.2649 10.9186C72.519 10.9186 72.0653 11.4972 72.0653 12.4445ZM79.0098 12.4445C78.9815 12.1486 79.0153 11.85 79.1089 11.5679C79.2024 11.2859 79.3538 11.0265 79.5532 10.8065C79.7525 10.5866 79.9956 10.4108 80.2667 10.2905C80.5378 10.1702 80.8309 10.1081 81.1274 10.1081C81.4238 10.1081 81.717 10.1702 81.9881 10.2905C82.2592 10.4108 82.5022 10.5866 82.7016 10.8065C82.901 11.0265 83.0523 11.2859 83.1459 11.5679C83.2395 11.85 83.2732 12.1486 83.245 12.4445C83.2738 12.7408 83.2405 13.0398 83.1473 13.3224C83.054 13.605 82.9027 13.8649 82.7033 14.0854C82.5039 14.3058 82.2606 14.482 81.9892 14.6026C81.7178 14.7232 81.4242 14.7855 81.1274 14.7855C80.8305 14.7855 80.537 14.7232 80.2656 14.6026C79.9942 14.482 79.7509 14.3058 79.5515 14.0854C79.352 13.8649 79.2008 13.605 79.1075 13.3224C79.0142 13.0398 78.9809 12.7408 79.0098 12.4445ZM82.3335 12.4445C82.3335 11.4684 81.8962 10.8976 81.1289 10.8976C80.3585 10.8976 79.9252 11.4684 79.9252 12.4445C79.9252 13.4284 80.3586 13.9948 81.1289 13.9948C81.8962 13.9948 82.3335 13.4245 82.3335 12.4445ZM84.4341 10.195H85.2872V10.9103H85.3534C85.4658 10.6534 85.6553 10.438 85.8955 10.2942C86.1357 10.1503 86.4146 10.0853 86.6935 10.108C86.912 10.0915 87.1314 10.1246 87.3354 10.2047C87.5394 10.2848 87.7229 10.4099 87.8721 10.5707C88.0214 10.7316 88.1327 10.924 88.1977 11.1338C88.2627 11.3437 88.2798 11.5655 88.2478 11.7828V14.6978H87.3615V12.006C87.3615 11.2824 87.0479 10.9225 86.3925 10.9225C86.2442 10.9156 86.0961 10.9409 85.9585 10.9967C85.8208 11.0526 85.6968 11.1376 85.5949 11.246C85.4931 11.3544 85.4158 11.4835 85.3684 11.6247C85.321 11.7658 85.3046 11.9155 85.3203 12.0636V14.6979H84.4342L84.4341 10.195ZM93.2554 9.07391V10.2155H94.2282V10.964H93.2554V13.2794C93.2554 13.7511 93.4491 13.9577 93.8903 13.9577C94.0032 13.9573 94.116 13.9504 94.2281 13.9371V14.6774C94.069 14.7059 93.9078 14.7211 93.7461 14.7228C92.7606 14.7228 92.3681 14.3751 92.3681 13.507V10.964H91.6553V10.2154H92.3681V9.07401L93.2554 9.07391ZM95.4387 8.43711H96.3171V10.9186H96.3872C96.505 10.6593 96.6997 10.4427 96.9447 10.2983C97.1898 10.154 97.4732 10.0889 97.7564 10.1119C97.9738 10.1 98.1911 10.1364 98.3928 10.2185C98.5946 10.3005 98.7757 10.4262 98.9235 10.5866C99.0712 10.7469 99.1818 10.938 99.2474 11.1461C99.313 11.3543 99.3319 11.5744 99.3029 11.7907V14.6979H98.4158V12.0099C98.4158 11.2906 98.0817 10.9264 97.4556 10.9264C97.3033 10.9139 97.1501 10.9349 97.0067 10.9879C96.8633 11.041 96.7332 11.1248 96.6255 11.2336C96.5178 11.3423 96.4351 11.4733 96.3832 11.6175C96.3313 11.7616 96.3114 11.9154 96.3249 12.068V14.6979H95.4387V8.43711ZM104.47 13.482C104.35 13.8936 104.089 14.2496 103.733 14.4877C103.378 14.7259 102.95 14.831 102.524 14.7848C102.229 14.7926 101.935 14.7358 101.663 14.6183C101.391 14.5008 101.148 14.3253 100.951 14.1042C100.753 13.8831 100.606 13.6215 100.52 13.3377C100.434 13.0539 100.41 12.7546 100.45 12.4606C100.411 12.1657 100.435 11.8658 100.521 11.5811C100.607 11.2964 100.754 11.0336 100.95 10.8105C101.146 10.5875 101.388 10.4093 101.659 10.2881C101.93 10.1669 102.224 10.1055 102.521 10.108C103.77 10.108 104.524 10.964 104.524 12.378V12.6881H101.353V12.7379C101.339 12.9031 101.36 13.0695 101.414 13.2262C101.468 13.383 101.554 13.5267 101.666 13.6481C101.779 13.7696 101.916 13.8661 102.068 13.9315C102.22 13.9969 102.383 14.0297 102.549 14.0279C102.761 14.0534 102.976 14.0152 103.166 13.9179C103.356 13.8207 103.513 13.669 103.617 13.482H104.47ZM101.353 12.0309H103.621C103.632 11.8798 103.612 11.728 103.561 11.5853C103.51 11.4425 103.43 11.3121 103.326 11.2022C103.222 11.0924 103.096 11.0056 102.956 10.9474C102.817 10.8892 102.667 10.8609 102.516 10.8644C102.362 10.8625 102.21 10.8913 102.068 10.9493C101.926 11.0072 101.797 11.0931 101.689 11.2018C101.581 11.3105 101.495 11.4399 101.437 11.5823C101.38 11.7247 101.351 11.8772 101.353 12.0309Z" fill="white"/>
</g>
</svg>
